<svg xmlns="http://www.w3.org/2000/svg" viewBox="0 0 28.222 28.222">
  <circle fill="#1c75bc" cx="14.111" cy="14.111" r="14.111" />
  <path fill="#fff" d="M23.644 10.444c-.038-.354-.133-.672-.284-.92-.18-.286-.403-.5-.706-.64-.287-.167-.61-.247-.99-.247H8.742l-.92 2.8h11.67l-1.845 5.642H5.974l-.92 2.8h12.948c.355 0 .745-.09 1.135-.246.397-.178.78-.39 1.134-.664.33-.258.64-.58.91-.934.264-.354.46-.71.582-1.102l1.74-5.352c.14-.392.185-.783.142-1.138 M12.43 12.958H5.514L4.61 15.56h6.935z"/>
</svg>
